<svg id="Ebene_1" data-name="Ebene 1" xmlns="http://www.w3.org/2000/svg" viewBox="0 0 195.65 218.04"><defs><style>.cls-1{fill:#fff;}.cls-1,.cls-2,.cls-3,.cls-4,.cls-5{fill-rule:evenodd;}.cls-2,.cls-4{fill:#1d1d1b;}.cls-2{stroke:#1d1d1b;stroke-miterlimit:2.61;stroke-width:0.22px;}.cls-3{fill:#e30613;}.cls-5{fill:#0075bf;}</style></defs><path class="cls-1" d="M96,216.18c-17.24-13.5-28.21-19.26-47.08-26.32S6.76,164.56-1.85,140.32c25-32.67,25.2-69.73,1-104.14l36.07-38c39.67,21.65,81.84,21.64,121.49,0l36.07,38c-24.19,34.41-24,71.47,1,104.14-8.61,24.24-31.88,42.77-50.74,49.83s-29.84,12.53-47.09,26Z" transform="translate(1.85 1.86)"/><path class="cls-2" d="M95.91,212.84C79.2,199.47,68,194.33,49.74,187.35S9.46,164.25,1.12,140.26c24.27-31.79,25-70.46,1.53-104l33-34.86c38.44,20.88,82.06,20.87,120.48,0l33,34.86c-23.44,33.51-22.73,72.18,1.53,104-8.34,24-30.34,40.1-48.62,47.09s-29.46,12.12-46.17,25.49Z" transform="translate(1.85 1.86)"/><path class="cls-1" d="M95.91,204.07c-15.28-12.82-28.33-16.59-44.66-23.83s-32.94-19.69-42-39.6a91.24,91.24,0,0,0,2.4-104L37.21,9.84c35.14,19.08,82.3,19.06,117.4,0l25.58,26.81a91.24,91.24,0,0,0,2.4,104c-9.08,19.91-25.68,32.36-42,39.6s-29.39,11-44.67,23.83Z" transform="translate(1.85 1.86)"/><path class="cls-3" d="M30,58.66h2.84V44.38H38V58.66H40.8V29.75H38v11H32.86v-11H30V58.66Zm13.59-5.07v4A6.13,6.13,0,0,0,47.28,59c3.29,0,5.51-3.29,5.51-7.63a10.88,10.88,0,0,0-3.32-8.07C47.37,41,45.92,39.64,45.92,37c0-2.39,1.15-4,3-4a4.7,4.7,0,0,1,3.17,1.58V30.68a6.07,6.07,0,0,0-3.7-1.3c-2.93,0-5.27,3.16-5.27,7.62,0,3.37,1.18,5.52,3.37,8s3.47,3.65,3.47,6.45c0,2.31-1.1,3.81-2.85,3.81a5.73,5.73,0,0,1-3.46-1.66ZM55,58.66h4.14c4.09,0,6-2.64,6-8.32,0-3.81-.89-5.83-3.17-6.56,2-.9,2.84-3,2.84-6.7,0-5.27-1.84-7.33-5.86-7.33H55V58.66ZM57.82,55V45.36h1c2.4,0,3.4,1.38,3.4,4.94S61.23,55,58.77,55Zm0-12.82v-9h1c2.22,0,3.11,1.14,3.11,4.46,0,3.08-1,4.5-3.11,4.5Z" transform="translate(1.85 1.86)"/><path class="cls-4" d="M123.16,175.37l1.87-1.86-20.45-20.44-3.7,3.7,2.46,2.47,1.85-1.84,18,18Zm.06-17.66c1.91,3.71,3.6,7.75,5.43,12.18l2.18-2.18c-3.11-7-5.77-12.47-10.44-17.14s-8-5.87-10.25-3.63S109,152.5,113.5,157c4.21,4.21,7,5.54,9,3.44a3,3,0,0,0,.67-2.73Zm-5-5.69c2.78,2.78,3.68,4.52,2.59,5.61s-2.76.24-5.57-2.57-3.74-4.53-2.67-5.59,2.87-.23,5.65,2.55Zm19.55,8.78,1.86-1.86-20.44-20.45-3.71,3.71,2.47,2.47,1.84-1.85,18,18Zm-.37-17.24c1.91,3.71,3.61,7.75,5.43,12.17l2.18-2.17c-3.11-7.05-5.77-12.47-10.44-17.14s-8-5.88-10.25-3.63-1.14,5.55,3.36,10.05c4.22,4.22,7,5.54,9.06,3.45a3,3,0,0,0,.66-2.73Zm-5-5.7c2.78,2.79,3.68,4.52,2.59,5.61s-2.77.25-5.58-2.56-3.73-4.53-2.66-5.6,2.86-.23,5.65,2.55Z" transform="translate(1.85 1.86)"/><path class="cls-5" d="M52.84,181.1l114-112.59a93.88,93.88,0,0,1,13.39-31.86L154.61,9.84a115.75,115.75,0,0,1-27.33,10.5l-110,108.44a122.62,122.62,0,0,1-8,11.86c9.08,19.91,26,32.65,42.3,39.89l1.31.57Z" transform="translate(1.85 1.86)"/><path class="cls-1" d="M62.37,151.8l6-6L56.59,134l15.46,8.13,6.47-6.47L55,112.1l-6,6,12.39,12.38-16-8.75-6.54,6.54L62.37,151.8Zm14.7-21.31a5.18,5.18,0,1,0,0-7.33,5.11,5.11,0,0,0,0,7.33Zm21.4-14.79L80.9,98.13l3.9-3.9-6-6-14.4,14.4,6,6,3.89-3.9L91.86,122.3l6.61-6.6Zm-1.82-4.79a5.18,5.18,0,1,0,0-7.33,5.11,5.11,0,0,0,0,7.33ZM102.5,96l6.5,6.51a14.08,14.08,0,0,0,7.28-3.69c4.82-4.83,4.91-11,.32-15.6-3.47-3.47-6.8-3.37-12.15-2.77-2,.23-3.31.46-4.26-.5a2.05,2.05,0,0,1,.23-3.07c1.12-1.12,3.14-1.88,6-2.21l-6.11-6.11a17.8,17.8,0,0,0-6.68,4c-4.29,4.3-4.32,10.14-.39,14.07,3.07,3.07,6.73,3,12.09,2.84,2-.06,3.43-.13,4.29.73a2.38,2.38,0,0,1-.17,3.47c-1.12,1.12-3.43,2-6.93,2.37Zm18.26-9.21a5.18,5.18,0,1,0,0-7.33,5.11,5.11,0,0,0,0,7.33Zm-14.3-26.19,28.93,18.16,7.27-7.26L124.49,42.58,118,49.12,130.87,67,113,54l-6.57,6.57Zm35.44,5a5.18,5.18,0,1,0,0-7.33,5.11,5.11,0,0,0,0,7.33Z" transform="translate(1.85 1.86)"/><path class="cls-4" d="M95.91,212.84C79.2,199.47,68,194.33,49.74,187.35S9.46,164.25,1.12,140.26c24.27-31.79,25-70.46,1.53-104l33-34.86c38.44,20.88,82.06,20.87,120.48,0l33,34.86c-23.44,33.51-22.73,72.18,1.53,104-8.34,24-30.34,40.1-48.62,47.09s-29.46,12.12-46.17,25.49ZM163.83,81.71,61.14,183c12,5,22.7,9.49,34.77,19.62,15.28-12.82,28.34-16.59,44.67-23.83s31.51-18.27,40.6-38.18a90.91,90.91,0,0,1-17.35-58.93ZM52.56,179.4,165.67,67.94a90.47,90.47,0,0,1,13.1-31.29l-24.16-25.4a115.35,115.35,0,0,1-27.33,10.51L17.23,130.2a90.69,90.69,0,0,1-6.58,10.44c9.08,19.91,24.27,31,40.6,38.18l1.31.58ZM25.05,110.53l87.14-86c-25.74,3.19-52.76-1.23-75-13.3L13.05,36.65a91.33,91.33,0,0,1,12,73.88Z" transform="translate(1.85 1.86)"/></svg>