<?xml version="1.0" encoding="UTF-8" standalone="no"?>
<svg
   xmlns:dc="http://purl.org/dc/elements/1.1/"
   xmlns:cc="http://creativecommons.org/ns#"
   xmlns:rdf="http://www.w3.org/1999/02/22-rdf-syntax-ns#"
   xmlns:svg="http://www.w3.org/2000/svg"
   xmlns="http://www.w3.org/2000/svg"
   xmlns:sodipodi="http://sodipodi.sourceforge.net/DTD/sodipodi-0.dtd"
   xmlns:inkscape="http://www.inkscape.org/namespaces/inkscape"
   inkscape:version="1.0 (4035a4fb49, 2020-05-01)"
   sodipodi:docname="tv bremen.svg"
   id="svg70"
   version="1.1"
   height="104.286"
   width="82">
  <metadata
     id="metadata76">
    <rdf:RDF>
      <cc:Work
         rdf:about="">
        <dc:format>image/svg+xml</dc:format>
        <dc:type
           rdf:resource="http://purl.org/dc/dcmitype/StillImage" />
        <dc:title></dc:title>
      </cc:Work>
    </rdf:RDF>
  </metadata>
  <defs
     id="defs74" />
  <sodipodi:namedview
     fit-margin-bottom="0"
     fit-margin-right="0"
     fit-margin-left="0"
     fit-margin-top="0"
     inkscape:current-layer="svg70"
     inkscape:window-maximized="0"
     inkscape:window-y="0"
     inkscape:window-x="0"
     inkscape:cy="52.143002"
     inkscape:cx="165.343"
     inkscape:zoom="3.0693769"
     showgrid="false"
     id="namedview72"
     inkscape:window-height="1117"
     inkscape:window-width="1908"
     inkscape:pageshadow="2"
     inkscape:pageopacity="0"
     guidetolerance="10"
     gridtolerance="10"
     objecttolerance="10"
     borderopacity="1"
     bordercolor="#666666"
     pagecolor="#ffffff" />
  <g
     id="g68"
     transform="translate(-441.872,-302.32)">
    <ellipse
       id="ellipse4"
       transform="translate(443.012,303.204)"
       ry="51.252998"
       rx="39.897999"
       data-name="Ellipse 1"
       fill="#ffffff"
       cy="51.252998"
       cx="39.897999" />
    <g
       id="g66"
       data-name="Ebene 1"
       fill="#2566b0">
      <g
         id="g12"
         data-name="Gruppe 1">
        <path
           id="path6"
           data-name="Pfad 1"
           d="m 441.872,354.463 c 0,28.752 18.393,52.143 41,52.143 22.607,0 41,-23.391 41,-52.143 0,-28.752 -18.386,-52.143 -41,-52.143 -22.614,0 -41,23.391 -41,52.143 m 1.308,0 c 0,-28.032 17.809,-50.835 39.692,-50.835 21.883,0 39.7,22.803 39.7,50.835 0,28.032 -17.81,50.834 -39.7,50.834 -21.89,0 -39.692,-22.807 -39.692,-50.834" />
        <path
           id="path8"
           data-name="Differenzmenge 2"
           d="m 482.875,404.063 c -21.611,0 -38.539,-21.784 -38.539,-49.6 h 14.215 a 54.175,54.175 0 0 0 1.912,14.46 41.912,41.912 0 0 0 5.213,11.807 26.749,26.749 0 0 0 7.733,7.961 16.822,16.822 0 0 0 18.941,0 26.748,26.748 0 0 0 7.733,-7.961 41.913,41.913 0 0 0 5.213,-11.807 54.182,54.182 0 0 0 1.912,-14.46 h 14.211 c 0,27.816 -16.931,49.6 -38.544,49.6 z m 5.253,-9.121 v 0.006 a 7.587,7.587 0 0 0 -0.793,1.615 10.844,10.844 0 0 0 -0.7,5.722 l 2.832,-0.588 a 9.158,9.158 0 0 1 1.26,-7.4 l -0.431,-2.076 -6.889,1.442 0.454,2.177 4.264,-0.889 z m -12.851,1.667 a 1.843,1.843 0 0 0 -2.028,1.561 c -0.567,2.532 2.13,3.428 3.315,3.7 a 6.728,6.728 0 0 0 1.454,0.167 2.9,2.9 0 0 0 3.134,-2.087 1.953,1.953 0 0 0 -1.3,-2.346 v -0.031 a 1.879,1.879 0 0 0 1.81,-1.552 c 0.252,-1.123 -0.4,-2.646 -3.053,-3.245 a 6.443,6.443 0 0 0 -1.376,-0.159 c -1.911,0 -2.534,0.981 -2.719,1.8 a 1.788,1.788 0 0 0 0.956,2.172 v 0.026 a 3.234,3.234 0 0 0 -0.193,-0.006 z m 21.486,-0.925 -2.141,1.435 a 2.58,2.58 0 0 0 2.271,1.234 4.8,4.8 0 0 0 2.623,-0.942 4.474,4.474 0 0 0 2.078,-2.727 2.9,2.9 0 0 0 -0.473,-2.21 2.944,2.944 0 0 0 -2.431,-1.49 3.189,3.189 0 0 0 -1.754,0.579 3.279,3.279 0 0 0 -1.352,1.553 l -0.035,-0.008 -0.457,-1.145 3.515,-2.36 0.006,0.009 v -0.013 h -0.006 l -1.234,-1.836 -5.195,3.485 2.141,4.88 2.017,-1.355 a 1.705,1.705 0 0 1 1.559,-1.493 1.193,1.193 0 0 1 1,0.591 1.123,1.123 0 0 1 0.173,0.86 1.486,1.486 0 0 1 -0.648,0.923 1.719,1.719 0 0 1 -0.937,0.331 h -0.088 a 1.072,1.072 0 0 1 -0.633,-0.3 z m -28.679,-3.493 -2.978,4.318 2.242,1.544 5.168,-7.5 -1.766,-1.217 a 1.842,1.842 0 0 1 -1.509,0.783 3.318,3.318 0 0 1 -1.841,-0.695 l -1.064,1.554 1.757,1.213 z m 9.441,7.9 a 2.586,2.586 0 0 1 -0.552,-0.064 c -0.331,-0.075 -1.4,-0.39 -1.2,-1.3 a 1.057,1.057 0 0 1 1.147,-0.891 2.547,2.547 0 0 1 0.554,0.067 c 0.64,0.146 1.359,0.518 1.147,1.465 a 0.994,0.994 0 0 1 -1.095,0.72 z m 0.792,-3.632 a 2.53,2.53 0 0 1 -0.546,-0.065 c -0.3,-0.068 -1.248,-0.355 -1.055,-1.217 a 0.9,0.9 0 0 1 0.974,-0.777 2.425,2.425 0 0 1 0.525,0.065 c 0.568,0.131 1.3,0.408 1.1,1.3 a 0.914,0.914 0 0 1 -0.998,0.691 z" />
        <path
           id="path10"
           data-name="Differenzmenge 1"
           d="m 477.551,354.464 -19,-10e-4 a 54.158,54.158 0 0 1 1.912,-14.457 41.907,41.907 0 0 1 5.213,-11.807 26.75,26.75 0 0 1 7.733,-7.96 17.273,17.273 0 0 1 9.471,-2.919 17.273,17.273 0 0 1 9.471,2.919 26.75,26.75 0 0 1 7.733,7.96 41.907,41.907 0 0 1 5.214,11.806 54.159,54.159 0 0 1 1.912,14.456 h -24.749 l -2.538,-4.2 4.379,-2.641 0.284,-0.175 1.444,-0.868 -3.695,-6.127 -1.731,1.046 -1.134,0.685 -1.733,1.039 1.042,1.732 v -0.009 l 0.886,1.47 1.731,-1.043 -0.886,-1.47 1.134,-0.684 1.61,2.665 -4.373,2.651 -3.33,-5.512 12.89,-7.778 3.328,5.509 -3.918,2.363 -1.608,-2.664 1.139,-0.685 0.885,1.465 1.728,-1.043 -0.886,-1.47 h 0.009 l -1.042,-1.731 -0.581,0.354 -1.155,0.7 -1.139,0.685 -1.731,1.043 3.694,6.119 1.5,-0.912 0.222,-0.135 5.644,-3.406 -8.749,-14.5 -1.008,-1.684 -0.013,-0.018 -0.009,-0.026 -7.375,4.453 0.244,0.406 3.451,5.714 1.727,-1.043 2.875,-1.736 -1.043,-1.728 h -0.008 l -0.886,-1.465 -1.727,1.043 0.88,1.47 -1.138,0.689 -1.61,-2.665 3.917,-2.364 3.34,5.531 -12.888,7.78 -3.337,-5.535 4.378,-2.643 1.61,2.666 -1.139,0.689 -0.886,-1.47 -1.731,1.047 0.886,1.465 1.043,1.727 1.317,-0.793 0.419,-0.253 1.139,-0.685 1.727,-1.047 -3.694,-6.119 -6.106,3.686 -1.802,-2.971 -3.6,2.172 12.817,21.236 z" />
      </g>
      <g
         id="g34"
         data-name="Gruppe 2">
        <path
           id="path14"
           data-name="Pfad 4"
           d="m 485.597,357.403 c -0.458,-0.755 -2.076,-0.611 -3.616,0.327 -1.54,0.938 -2.416,2.3 -1.958,3.057 0.458,0.757 2.08,0.611 3.62,-0.327 1.54,-0.938 2.416,-2.3 1.958,-3.057" />
        <path
           id="path16"
           data-name="Pfad 5"
           d="m 477.545,354.463 2.4,3.973 a 5.661,5.661 0 0 1 1.592,-1.4 5.5,5.5 0 0 1 2.011,-0.763 l -1.093,-1.81" />
        <path
           id="path18"
           data-name="Pfad 7"
           d="m 490.8,378.653 c 0.458,0.755 2.076,0.606 3.62,-0.327 1.544,-0.933 2.416,-2.3 1.958,-3.058 -0.458,-0.758 -2.08,-0.611 -3.62,0.327 -1.54,0.938 -2.416,2.307 -1.958,3.062" />
        <path
           id="path20"
           data-name="Pfad 8"
           d="m 495.972,377.945 a 5.988,5.988 0 0 1 -1.2,0.946 6.107,6.107 0 0 1 -1.322,0.606 2.29,2.29 0 0 0 -0.14,0.776 2.364,2.364 0 1 0 2.665,-2.333" />
        <path
           id="path22"
           data-name="Pfad 9"
           d="m 498.677,365.515 c 0.755,-0.458 0.611,-2.076 -0.327,-3.62 -0.938,-1.544 -2.3,-2.416 -3.057,-1.958 -0.757,0.458 -0.611,2.076 0.323,3.62 0.934,1.544 2.307,2.416 3.062,1.958" />
        <path
           id="path24"
           data-name="Pfad 10"
           d="m 500.304,358.279 a 2.356,2.356 0 0 0 -2.333,2.063 5.991,5.991 0 0 1 0.946,1.2 6.193,6.193 0 0 1 0.611,1.33 2.392,2.392 0 0 0 0.772,0.135 2.364,2.364 0 1 0 0,-4.728" />
        <path
           id="path26"
           data-name="Pfad 11"
           d="m 477.541,370.653 c -0.755,0.458 -0.611,2.076 0.327,3.616 0.938,1.54 2.3,2.416 3.057,1.958 0.757,-0.458 0.611,-2.08 -0.327,-3.62 -0.938,-1.54 -2.307,-2.416 -3.057,-1.958" />
        <path
           id="path28"
           data-name="Pfad 12"
           d="m 477.297,374.622 a 6.107,6.107 0 0 1 -0.606,-1.322 2.309,2.309 0 0 0 -0.776,-0.14 2.364,2.364 0 1 0 2.333,2.665 5.99,5.99 0 0 1 -0.946,-1.2" />
        <path
           id="path30"
           data-name="Pfad 13"
           d="m 479.717,370.553 c 0,0 4.471,-3.982 2.3,-8.68 a 4.991,4.991 0 0 0 3.63,-2.18 c 0,0 3.982,4.471 8.675,2.3 a 4.991,4.991 0 0 0 2.176,3.633 c 0,0 -4.471,3.982 -2.294,8.68 a 4.991,4.991 0 0 0 -3.633,2.176 c 0,0 -3.982,-4.471 -8.675,-2.3 a 4.979,4.979 0 0 0 -2.176,-3.629 m 5.3,-7.061 a 8.552,8.552 0 0 1 0.07,1.047 10.4,10.4 0 0 1 -2.024,5.914 6.907,6.907 0 0 1 0.445,0.724 10.055,10.055 0 0 1 6.961,1.954 6.9,6.9 0 0 1 0.724,-0.445 8.617,8.617 0 0 1 -0.07,-1.051 10.4,10.4 0 0 1 2.024,-5.914 7.725,7.725 0 0 1 -0.445,-0.724 10.033,10.033 0 0 1 -6.958,-1.954 7.732,7.732 0 0 1 -0.724,0.445" />
        <path
           id="path32"
           data-name="Pfad 14"
           d="m 486.159,365.188 a 5.689,5.689 0 0 1 0.044,0.659 6.52,6.52 0 0 1 -1.278,3.725 4.3,4.3 0 0 1 0.279,0.458 6.324,6.324 0 0 1 4.388,1.234 5.224,5.224 0 0 1 0.458,-0.283 5.7,5.7 0 0 1 -0.044,-0.663 6.521,6.521 0 0 1 1.278,-3.725 4.292,4.292 0 0 1 -0.279,-0.458 6.322,6.322 0 0 1 -4.388,-1.23 4.3,4.3 0 0 1 -0.458,0.279" />
      </g>
      <g
         id="g64"
         data-name="Gruppe 3">
        <path
           id="path36"
           data-name="Pfad 15"
           d="m 449.177,350.681 -0.2,2.608 -2.39,-0.179 0.611,-8.091 2.39,0.183 -0.2,2.608 6.926,0.523 -0.214,2.87 z" />
        <path
           id="path38"
           data-name="Pfad 16"
           d="m 457.718,340.043 -0.676,3.149 -9.718,0.763 0.611,-2.839 5.858,-0.31 0.008,-0.028 -5.225,-2.661 0.619,-2.892 z" />
        <path
           id="path40"
           data-name="Pfad 17"
           d="m 450.839,330.282 2.155,-4.641 c 1.038,-2.229 2.512,-2.12 3.38,-1.718 a 1.923,1.923 0 0 1 1.178,1.814 2.286,2.286 0 0 1 2.8,-0.493 c 1.7,0.789 1.893,2.665 1.2,4.161 l -2.233,4.806 -8.48,-3.933 z m 4.51,-1.082 0.641,-1.378 c 0.253,-0.545 0.257,-0.96 -0.288,-1.217 -0.427,-0.2 -0.746,0.087 -0.994,0.619 l -0.641,1.378 1.282,0.593 z m 3.158,1.465 0.711,-1.531 c 0.253,-0.545 0.318,-1.095 -0.331,-1.4 -0.5,-0.231 -0.907,-0.061 -1.2,0.554 l -0.759,1.64 1.579,0.733 z" />
        <path
           id="path42"
           data-name="Pfad 18"
           d="m 457.879,322.008 1.435,-2.026 0.885,0.628 0.017,-0.022 a 1.988,1.988 0 0 1 0.079,-2.285 3.032,3.032 0 0 1 0.523,-0.558 l 1.871,1.322 a 2.643,2.643 0 0 0 -0.728,0.733 c -0.589,0.833 -0.414,1.631 0.772,2.469 l 2.19,1.548 -1.5,2.115 z" />
        <path
           id="path44"
           data-name="Pfad 19"
           d="m 466.044,318.1 a 1.363,1.363 0 0 0 2.329,-1.029 l 1.771,-1.654 a 3.477,3.477 0 0 1 -1.09,3.952 c -1.588,1.483 -3.659,1.657 -5.2,0 a 3.487,3.487 0 0 1 0.179,-5.068 c 1.971,-1.841 3.851,-1.531 5.653,0.4 l -3.638,3.389 z m 0.9,-2.682 a 1.118,1.118 0 0 0 -1.609,-0.057 1.232,1.232 0 0 0 -0.2,1.745 z" />
        <path
           id="path46"
           data-name="Pfad 20"
           d="m 470.056,310.433 2.38,-0.765 0.275,0.851 0.026,-0.009 a 2.464,2.464 0 0 1 1.793,-1.692 2.03,2.03 0 0 1 2.067,0.436 2.648,2.648 0 0 1 1.884,-1.71 2.131,2.131 0 0 1 2.914,1.457 l 1.413,4.388 -2.464,0.794 -1.117,-3.463 c -0.2,-0.606 -0.432,-1.125 -1.178,-0.885 -0.624,0.2 -0.68,0.75 -0.467,1.413 l 1.117,3.463 -2.464,0.794 -1.12,-3.467 c -0.2,-0.606 -0.432,-1.125 -1.178,-0.885 -0.624,0.2 -0.68,0.75 -0.467,1.413 l 1.117,3.463 -2.464,0.794 -2.063,-6.4 z" />
        <path
           id="path48"
           data-name="Pfad 21"
           d="m 485.772,310.733 a 1.366,1.366 0 0 0 2.2,1.287 l 2.377,0.467 a 3.471,3.471 0 0 1 -3.843,1.431 c -2.133,-0.419 -3.489,-1.993 -3.053,-4.213 a 3.482,3.482 0 0 1 4.209,-2.826 c 2.647,0.519 3.5,2.22 2.988,4.815 l -4.881,-0.96 z m 2.7,-0.842 a 1.113,1.113 0 0 0 -0.9,-1.335 1.229,1.229 0 0 0 -1.531,0.859 l 2.425,0.475 z" />
        <path
           id="path50"
           data-name="Pfad 22"
           d="m 493.958,308.888 2.115,1.335 -0.462,0.728 0.022,0.013 a 2.489,2.489 0 0 1 2.421,0.305 2.187,2.187 0 0 1 0.741,3.188 l -2.486,3.939 -2.19,-1.383 1.9,-3.009 c 0.419,-0.663 0.637,-1.178 -0.009,-1.583 -0.375,-0.236 -0.994,-0.362 -1.57,0.554 l -1.915,3.031 -2.189,-1.383 3.624,-5.744 z" />
        <path
           id="path52"
           data-name="Rechteck 12"
           d="m 498.304,317.182 1.537,-1.498 2.859,2.933 -1.537,1.498 z" />
        <path
           id="path54"
           data-name="Pfad 23"
           d="m 504.548,329.471 -1.47,-2.381 4.314,-3.847 -0.013,-0.022 -5.36,2.15 -1.479,-2.39 6.621,-7.066 1.483,2.4 -4.314,4 0.013,0.022 5.5,-2.072 1.33,2.159 -4.4,4.008 0.017,0.022 5.587,-2.08 1.492,2.416 z" />
        <path
           id="path56"
           data-name="Pfad 24"
           d="m 509.062,337.033 a 2.727,2.727 0 0 0 -1.317,0.816 l -0.912,-2.482 a 1.688,1.688 0 0 1 0.571,-0.305 l -0.006,-0.026 a 2.753,2.753 0 0 1 -1.513,-1.771 c -0.449,-1.23 -0.236,-2.464 1.1,-2.957 2.015,-0.737 2.8,1.649 3.494,2.8 0.183,0.31 0.4,0.606 0.807,0.458 0.432,-0.157 0.441,-0.624 0.3,-1.016 -0.275,-0.75 -0.711,-0.759 -0.986,-0.672 l -0.829,-2.259 c 1.819,-0.584 2.739,1 3.293,2.512 1.117,3.044 -0.157,3.485 -1.387,3.939 l -2.617,0.96 z m 0.58,-2.861 a 4.354,4.354 0 0 1 -0.659,-0.846 c -0.323,-0.5 -0.558,-0.728 -0.99,-0.571 a 0.745,0.745 0 0 0 -0.31,0.977 1.028,1.028 0 0 0 1.37,0.654 l 0.589,-0.218 z" />
        <path
           id="path58"
           data-name="Rechteck 13"
           d="m 507.876,338.728 9.068,-2.25 0.624,2.516 -9.068,2.249 z" />
        <path
           id="path60"
           data-name="Rechteck 14"
           d="m 508.776,342.557 9.203,-1.635 0.453,2.552 -9.203,1.635 z" />
        <path
           id="path62"
           data-name="Pfad 25"
           d="m 512.464,348.32 a 1.364,1.364 0 0 0 -0.65,2.464 l 0.188,2.412 a 3.478,3.478 0 0 1 -2.408,-3.319 c -0.166,-2.168 0.986,-3.895 3.241,-4.069 a 3.486,3.486 0 0 1 3.851,3.3 c 0.2,2.687 -1.2,3.965 -3.838,4.165 l -0.384,-4.959 z m 1.535,2.377 a 1.112,1.112 0 0 0 1.047,-1.221 1.228,1.228 0 0 0 -1.239,-1.243 l 0.188,2.464 z" />
      </g>
    </g>
  </g>
</svg>
